<?xml version="1.0" encoding="UTF-8"?>
<svg id="Layer_2" data-name="Layer 2" xmlns="http://www.w3.org/2000/svg" viewBox="0 0 340.21 335.48">
  <defs>
    <style>
      .cls-1 {
        fill: #000;
        stroke-width: 0px;
      }
    </style>
  </defs>
  <g id="Layer_1-2" data-name="Layer 1">
    <path class="cls-1" d="M340.21,335.48H0V0h340.21v335.48ZM153.43,167.92c1.15,1.43,2.04,2.4,2.77,3.49,19.96,29.68,39.94,59.36,59.8,89.11,1.84,2.75,3.65,4.3,7.16,4.14,6.14-.28,12.3.14,18.43-.2,1.95-.11,4.67-1.22,5.5-2.72.79-1.44.22-4.42-.84-5.98-21-30.79-42.17-61.46-63.29-92.17-3.45-5.02-6.82-10.09-10.5-15.54,2.45-2.29,4.56-4.16,6.56-6.15,20.72-20.67,41.46-41.32,62.05-62.11,1.2-1.21,1.82-3.62,1.7-5.4-.21-3-2.74-3.14-5.24-3.1-6.81.09-13.63-.13-20.43.13-1.94.08-4.34.88-5.67,2.21-25.63,25.63-51.13,51.39-76.67,77.1-3.18,3.2-6.47,6.3-10.65,10.35,0-3.33,0-5.14,0-6.96,0-25.16.02-50.32-.01-75.48,0-5.98-1.38-7.28-7.38-7.32-4.32-.03-8.64.04-12.96-.02-4.27-.06-6.49,1.83-6.49,6.25.02,60.15.02,120.31,0,180.46,0,4.63,2.37,6.6,6.79,6.57,4.15-.03,8.31.02,12.46-.01,6.05-.04,7.58-1.58,7.58-7.76.03-17.33.21-34.66-.11-51.99-.1-5.55,1.18-9.63,5.46-13.48,8.25-7.42,15.92-15.48,23.99-23.43Z"/>
  </g>
</svg>