<?xml version="1.0" encoding="UTF-8"?>
<svg id="Layer_2" data-name="Layer 2" xmlns="http://www.w3.org/2000/svg" viewBox="0 0 670.03 750.57">
  <defs>
    <style>
      .cls-1 {
        fill: #000;
        stroke-width: 0px;
      }
    </style>
  </defs>
  <g id="Layer_1-2" data-name="Layer 1">
    <path class="cls-1" d="M0,184.37c4.2-2.36,8.42-4.68,12.59-7.1,75.63-43.75,151.25-87.51,226.88-131.26,25.91-14.99,51.83-29.99,77.74-44.98.52-.3,1.06-.56,1.79-.95,0,250.31,0,500.34,0,750.48-1.57-.9-2.99-1.7-4.39-2.52-40.56-23.75-81.11-47.5-121.7-71.21-1.46-.86-1.95-1.78-1.95-3.44.04-144.12.04-288.24.04-432.35v-3.29c-1.9,1.1-3.48,2-5.04,2.92-61.44,36.27-122.88,72.54-184.33,108.8-.51.3-1.09.47-1.64.69C0,294.86,0,239.63,0,184.37Z"/>
    <path class="cls-1" d="M351,0c5.58,3.22,10.87,6.27,16.14,9.32,62.13,35.95,124.26,71.9,186.39,107.85,38.34,22.18,76.67,44.36,115.02,66.52.99.57,1.48,1.13,1.48,2.39-.04,54.21-.03,108.42-.03,162.63v1.66c-63.71-37.6-127.15-75.05-190.9-112.68-.04.96-.09,1.6-.1,2.23,0,26.73.01,53.46-.04,80.18,0,1.3.7,2.51,1.83,3.15,30.13,17.02,60.22,34.1,90.36,51.12,1.38.78,1.83,1.7,1.85,3.17.31,17.24.65,34.48,1.01,51.71.6,28.85,1.22,57.7,1.83,86.55.04,2.12,0,4.25,0,6.69-32.23-18.72-64.34-37.36-96.85-56.24v2.84c0,68.06,0,136.12.04,204.19,0,1.53-.81,2.95-2.14,3.73-41.46,24.21-82.89,48.48-124.33,72.73-.45.26-.94.47-1.58.78V0Z"/>
  </g>
</svg>